<?xml version="1.0" encoding="UTF-8" standalone="no"?>
<!DOCTYPE svg PUBLIC "-//W3C//DTD SVG 1.1//EN" "http://www.w3.org/Graphics/SVG/1.1/DTD/svg11.dtd">
<svg version="1.1" xmlns="http://www.w3.org/2000/svg" xmlns:xlink="http://www.w3.org/1999/xlink" preserveAspectRatio="xMidYMid meet" viewBox="0 0 640 640" width="640" height="640"><defs><path d="M160 367.35L480 367.35C480 328.95 480 307.62 480 303.35C480 268.05 508.7 239.35 544 239.35C547.2 239.35 572.8 239.35 576 239.35C576 186.35 533 143.35 480 143.35C448 143.35 192 143.35 160 143.35C107 143.35 64 186.35 64 239.35C67.2 239.35 92.8 239.35 96 239.35C131.3 239.35 160 268.05 160 303.35C160 311.89 160 333.22 160 367.35ZM544 271.35C526.3 271.35 512 285.65 512 303.35C512 309.75 512 341.75 512 399.35L128 399.35C128 341.75 128 309.75 128 303.35C128 285.65 113.7 271.35 96 271.35C92.8 271.35 67.2 271.35 64 271.35C28.7 271.35 0 300.05 0 335.35C0 358.95 13 379.35 32 390.45C32 402.54 32 499.26 32 511.35C32 520.15 39.2 527.35 48 527.35C54.4 527.35 105.6 527.35 112 527.35C120.8 527.35 128 520.15 128 511.35C128 510.29 128 504.95 128 495.35L512 495.35C512 504.95 512 510.29 512 511.35C512 520.15 519.2 527.35 528 527.35C534.4 527.35 585.6 527.35 592 527.35C600.8 527.35 608 520.15 608 511.35C608 499.26 608 402.54 608 390.45C627 379.35 640 358.95 640 335.35C640 300.05 611.3 271.35 576 271.35C569.6 271.35 547.2 271.35 544 271.35Z" id="c51im5CWjw"></path><path d="M533.43 44.03C535.81 40 534.47 34.8 530.45 32.42C526.42 30.04 521.21 31.38 518.83 35.4C515.64 40.8 499.68 67.8 470.96 116.4C391.63 250.59 347.56 325.15 338.74 340.06C329.91 304.67 289.22 274.67 238.02 269.14C202.61 265.32 168.12 273.98 145.75 292.3C131.15 304.27 122.65 319.4 121.14 336.06C118.64 363.83 136.64 390.44 165.8 407.69C182.1 417.32 201.9 424.03 223.53 426.37C258.95 430.18 293.45 421.53 315.81 403.2C325.02 395.64 331.2 386.15 337.17 376.06C340.41 370.58 343.64 365.11 346.87 359.64C351.5 351.82 356.12 344.01 360.73 336.2C366.25 326.86 371.77 317.53 377.28 308.2C383.21 298.18 389.13 288.15 395.06 278.13C400.91 268.24 406.75 258.35 412.6 248.46C417.87 239.54 423.15 230.62 428.42 221.69C432.64 214.55 436.86 207.42 441.08 200.28C443.75 195.76 446.42 191.25 449.09 186.72C449.79 185.54 450.49 184.36 451.18 183.19C448.93 204.55 449.67 229.92 457.35 257.99C473.19 315.79 466.17 339.88 462.41 347.55C460.45 351.54 461.91 356.33 465.7 358.57C465.8 358.63 465.89 358.68 466 358.74C470.01 360.9 475 359.51 477.31 355.59C481.6 348.33 515.91 290.3 520.19 283.05C524.15 277.74 542.28 248.1 521.57 172.51C501.6 99.61 533.11 44.57 533.43 44.03Z" id="hAfErddr0"></path></defs><g><g><g><use xlink:href="#c51im5CWjw" opacity="1" fill="#965528" fill-opacity="1"></use><g><use xlink:href="#c51im5CWjw" opacity="1" fill-opacity="0" stroke="#000000" stroke-width="1" stroke-opacity="0"></use></g></g><g><use xlink:href="#hAfErddr0" opacity="1" fill="#000000" fill-opacity="1"></use><g><use xlink:href="#hAfErddr0" opacity="1" fill-opacity="0" stroke="#000000" stroke-width="1" stroke-opacity="0"></use></g></g></g></g></svg>